<mxfile host="app.diagrams.net" modified="2024-05-07T15:38:50.499Z" agent="Mozilla/5.0 (Windows NT 10.0; Win64; x64) AppleWebKit/537.36 (KHTML, like Gecko) Chrome/124.0.0.0 Safari/537.36 Edg/124.0.0.0" etag="x6QU4E-QPmfuhAjOEvae" version="21.6.7" type="github">
  <diagram name="Page-1" id="gJcSldELC-2B4IKOkgeM">
    <mxGraphModel dx="1282" dy="577" grid="1" gridSize="10" guides="1" tooltips="1" connect="1" arrows="1" fold="1" page="1" pageScale="1" pageWidth="850" pageHeight="1100" math="0" shadow="0">
      <root>
        <mxCell id="0" />
        <mxCell id="1" parent="0" />
        <mxCell id="07l29-t6zsmYIf03nnSy-1" value="Empty &amp;amp; Hidden" style="rounded=1;whiteSpace=wrap;html=1;" vertex="1" parent="1">
          <mxGeometry x="160" y="130" width="180" height="70" as="geometry" />
        </mxCell>
        <mxCell id="07l29-t6zsmYIf03nnSy-4" value="" style="ellipse;whiteSpace=wrap;html=1;aspect=fixed;fillStyle=solid;fillColor=black;" vertex="1" parent="1">
          <mxGeometry x="50" y="145" width="40" height="40" as="geometry" />
        </mxCell>
        <mxCell id="07l29-t6zsmYIf03nnSy-6" value="PS Selected and Collapsed" style="rounded=1;whiteSpace=wrap;html=1;" vertex="1" parent="1">
          <mxGeometry x="494" y="130" width="180" height="70" as="geometry" />
        </mxCell>
        <mxCell id="07l29-t6zsmYIf03nnSy-16" style="edgeStyle=orthogonalEdgeStyle;rounded=0;orthogonalLoop=1;jettySize=auto;html=1;exitX=0;exitY=0.5;exitDx=0;exitDy=0;" edge="1" parent="1" source="07l29-t6zsmYIf03nnSy-7" target="07l29-t6zsmYIf03nnSy-1">
          <mxGeometry relative="1" as="geometry" />
        </mxCell>
        <mxCell id="07l29-t6zsmYIf03nnSy-17" value="Clear/Saved Job" style="edgeLabel;html=1;align=center;verticalAlign=middle;resizable=0;points=[];" vertex="1" connectable="0" parent="07l29-t6zsmYIf03nnSy-16">
          <mxGeometry x="0.3035" y="3" relative="1" as="geometry">
            <mxPoint as="offset" />
          </mxGeometry>
        </mxCell>
        <mxCell id="07l29-t6zsmYIf03nnSy-7" value="PS Selected &amp;amp; Expanded" style="rounded=1;whiteSpace=wrap;html=1;" vertex="1" parent="1">
          <mxGeometry x="334" y="282" width="180" height="70" as="geometry" />
        </mxCell>
        <mxCell id="07l29-t6zsmYIf03nnSy-8" value="" style="endArrow=classic;html=1;rounded=0;entryX=0;entryY=0.5;entryDx=0;entryDy=0;exitX=1;exitY=0.5;exitDx=0;exitDy=0;" edge="1" parent="1" source="07l29-t6zsmYIf03nnSy-1" target="07l29-t6zsmYIf03nnSy-6">
          <mxGeometry width="50" height="50" relative="1" as="geometry">
            <mxPoint x="340" y="160" as="sourcePoint" />
            <mxPoint x="390" y="110" as="targetPoint" />
          </mxGeometry>
        </mxCell>
        <mxCell id="07l29-t6zsmYIf03nnSy-9" value="PS Selected in Finder" style="edgeLabel;html=1;align=center;verticalAlign=middle;resizable=0;points=[];" vertex="1" connectable="0" parent="07l29-t6zsmYIf03nnSy-8">
          <mxGeometry x="0.0494" y="-1" relative="1" as="geometry">
            <mxPoint as="offset" />
          </mxGeometry>
        </mxCell>
        <mxCell id="07l29-t6zsmYIf03nnSy-10" value="" style="endArrow=classic;html=1;rounded=0;exitX=0.556;exitY=1.04;exitDx=0;exitDy=0;exitPerimeter=0;entryX=0.5;entryY=0;entryDx=0;entryDy=0;" edge="1" parent="1" source="07l29-t6zsmYIf03nnSy-6" target="07l29-t6zsmYIf03nnSy-7">
          <mxGeometry width="50" height="50" relative="1" as="geometry">
            <mxPoint x="400" y="330" as="sourcePoint" />
            <mxPoint x="450" y="280" as="targetPoint" />
          </mxGeometry>
        </mxCell>
        <mxCell id="07l29-t6zsmYIf03nnSy-11" value="Expanded" style="edgeLabel;html=1;align=center;verticalAlign=middle;resizable=0;points=[];" vertex="1" connectable="0" parent="07l29-t6zsmYIf03nnSy-10">
          <mxGeometry x="-0.0098" y="2" relative="1" as="geometry">
            <mxPoint as="offset" />
          </mxGeometry>
        </mxCell>
        <mxCell id="07l29-t6zsmYIf03nnSy-12" value="" style="endArrow=classic;html=1;rounded=0;exitX=1;exitY=0.5;exitDx=0;exitDy=0;entryX=0;entryY=0.5;entryDx=0;entryDy=0;" edge="1" parent="1" source="07l29-t6zsmYIf03nnSy-4" target="07l29-t6zsmYIf03nnSy-1">
          <mxGeometry width="50" height="50" relative="1" as="geometry">
            <mxPoint x="400" y="330" as="sourcePoint" />
            <mxPoint x="450" y="280" as="targetPoint" />
          </mxGeometry>
        </mxCell>
        <mxCell id="07l29-t6zsmYIf03nnSy-13" value="" style="endArrow=classic;html=1;rounded=0;entryX=0.75;entryY=1;entryDx=0;entryDy=0;exitX=1;exitY=0.5;exitDx=0;exitDy=0;" edge="1" parent="1" source="07l29-t6zsmYIf03nnSy-7" target="07l29-t6zsmYIf03nnSy-6">
          <mxGeometry width="50" height="50" relative="1" as="geometry">
            <mxPoint x="520" y="320" as="sourcePoint" />
            <mxPoint x="560" y="270" as="targetPoint" />
          </mxGeometry>
        </mxCell>
        <mxCell id="07l29-t6zsmYIf03nnSy-14" value="Callapsed" style="edgeLabel;html=1;align=center;verticalAlign=middle;resizable=0;points=[];" vertex="1" connectable="0" parent="07l29-t6zsmYIf03nnSy-13">
          <mxGeometry x="0.0066" y="-3" relative="1" as="geometry">
            <mxPoint x="-1" as="offset" />
          </mxGeometry>
        </mxCell>
      </root>
    </mxGraphModel>
  </diagram>
</mxfile>
